<svg xmlns="http://www.w3.org/2000/svg" width="320" height="280" viewBox="0 0 320 280" fill="none">
  <rect x="78" y="62" width="168" height="104" rx="6" transform="rotate(-7 162 114)" stroke="#111827" stroke-opacity="0.22" stroke-width="1.2"></rect>
  <rect x="86" y="70" width="168" height="104" rx="6" transform="rotate(-3 170 122)" stroke="#111827" stroke-opacity="0.22" stroke-width="1.2"></rect>
  <g stroke="#60809E" stroke-width="1.3" stroke-linecap="round">
    <path d="M160 146v18"></path><path d="M160 138l-34-30"></path><path d="M160 138l34-30"></path>
    <path d="M160 134l-58-20"></path><path d="M160 134l58-20"></path><path d="M160 130l-14-44"></path><path d="M160 130l14-44"></path>
  </g>
  <circle cx="126" cy="104" r="4" fill="#E8B84B"></circle><circle cx="194" cy="104" r="3" fill="#E8B84B"></circle><circle cx="146" cy="82" r="2.6" fill="#E8B84B"></circle>
  <circle cx="218" cy="110" r="2.2" fill="#60809E"></circle><circle cx="102" cy="110" r="2.2" fill="#60809E"></circle>
  <path d="M160 232c-26-22-62-26-100-20V148c38-6 74-1 100 20z" fill="#FFFFFF" stroke="#3A4A5C" stroke-width="1.6" stroke-linejoin="round"></path>
  <path d="M160 232c26-22 62-26 100-20V148c-38-6-74-1-100 20z" fill="#FFFFFF" stroke="#3A4A5C" stroke-width="1.6" stroke-linejoin="round"></path>
  <path d="M160 168v64" stroke="#3A4A5C" stroke-width="1.6"></path>
  <g stroke="#111827" stroke-opacity="0.22" stroke-width="1.1" stroke-linecap="round">
    <path d="M80 172h58"></path><path d="M80 186h50"></path><path d="M80 200h58"></path><path d="M182 172h58"></path><path d="M190 186h50"></path><path d="M182 200h58"></path>
  </g>
</svg>